<svg width="16" height="18" viewBox="0 0 16 18" fill="none" xmlns="http://www.w3.org/2000/svg">
<path d="M15.4872 17.0373H9.37397C9.09075 17.0373 8.86115 16.8066 8.86115 16.5221V1.47808C8.86115 1.31053 8.94224 1.15343 9.07858 1.05692C9.21489 0.960401 9.38945 0.936599 9.54648 0.992893L15.6597 3.18681C15.8638 3.26007 16 3.45427 16 3.672V16.5221C16 16.8066 15.7704 17.0373 15.4872 17.0373ZM9.88679 16.0069H14.9744V4.03505L9.88679 2.20923V16.0069Z" fill="#0C111D"/>
<path d="M9.37396 1.47803V16.522H15.4872V3.67195L9.37396 1.47803ZM11.7703 14.9564H10.8814V13.5707H11.7703V14.9564ZM11.7703 11.7878H10.8814V10.4021H11.7703V11.7878ZM11.7703 8.65368H10.8814V7.26798H11.7703V8.65368ZM11.7703 5.48516H10.8814V4.09946H11.7703V5.48516ZM13.9635 14.9564H13.0746V13.5707H13.9635V14.9564ZM13.9635 11.7878H13.0746V10.4021H13.9635V11.7878ZM13.9635 8.65368H13.0746V7.26798H13.9635V8.65368Z" fill="#0C111D"/>
<path d="M6.62605 17.0373H0.512821C0.229607 17.0373 0 16.8066 0 16.5221V3.67203C0 3.4543 0.136205 3.2601 0.340308 3.18684L6.45354 0.992924C6.61056 0.93656 6.78509 0.960432 6.92144 1.05695C7.05778 1.15346 7.13887 1.31053 7.13887 1.47811V16.5221C7.13887 16.8066 6.90927 17.0373 6.62605 17.0373ZM1.02564 16.0069H6.11323V2.20926L1.02564 4.03508V16.0069Z" fill="#0C111D"/>
<path d="M9.37397 16.0068H6.62604V17.0372H9.37397V16.0068Z" fill="#0C111D"/>
<path d="M9.37397 3.95166H6.62604V4.98207H9.37397V3.95166Z" fill="#0C111D"/>
<path d="M5.18696 4.09961H4.16132V5.48531H5.18696V4.09961Z" fill="#0C111D"/>
<path d="M5.18696 7.26807H4.16132V8.65376H5.18696V7.26807Z" fill="#0C111D"/>
<path d="M5.18696 10.4021H4.16132V11.7878H5.18696V10.4021Z" fill="#0C111D"/>
<path d="M2.99372 7.26807H1.96808V8.65376H2.99372V7.26807Z" fill="#0C111D"/>
<path d="M2.99372 10.4021H1.96808V11.7878H2.99372V10.4021Z" fill="#0C111D"/>
<path d="M5.18696 13.5706H4.16132V14.9563H5.18696V13.5706Z" fill="#0C111D"/>
<path d="M2.99372 13.5706H1.96808V14.9563H2.99372V13.5706Z" fill="#0C111D"/>
</svg>
