<svg width="154" height="155" viewBox="0 0 154 155" fill="none" xmlns="http://www.w3.org/2000/svg">
<path d="M18.2692 74.0919C16.7545 61.4346 17.436 48.7244 20.2055 36.2113C20.6079 34.3938 22.2736 36.0472 34.0164 33.4172C34.9148 33.2163 35.8056 33.0063 36.6879 32.7894C37.0834 32.0573 37.5219 31.3283 38.0094 30.6108C27.7844 33.0385 19.7601 33.8633 19.4742 34.1124C18.9668 34.554 18.8088 34.741 18.4539 36.2618C15.0367 50.9106 14.9477 66.431 17.6927 81.3074C17.8284 78.941 18.0208 76.5103 18.2684 74.0911L18.2692 74.0919Z" fill="black"/>
<path d="M132.835 43.8093C130.827 41.8868 127.441 39.8255 126.003 39.3142C124.001 38.6013 106.219 36.8965 81.0435 21.899C71.6364 16.2955 72.8085 15.3051 69.3099 17.8079C68.085 18.6841 66.8026 19.5142 65.4757 20.2999C66.0536 20.3881 66.627 20.4908 67.1966 20.6089C71.8005 17.7573 71.0975 17.1671 72.1814 17.9796C83.1492 26.2047 102.747 35.9399 121.747 39.8071C123.796 40.2241 124.948 39.6408 124.625 41.5617C124.147 44.4079 123.021 61.6292 114.771 81.6715C103.98 107.885 81.7058 131.977 60.6257 143.15C59.0259 143.997 57.4131 145.161 55.2292 143.455C50.2435 139.561 46.7197 136.5 42.115 131.012C34.1115 121.472 31.4684 116.832 27.9507 108.526C27.3919 108.313 26.7986 108.084 26.1256 107.832C26.0474 107.803 25.97 107.774 25.8933 107.745C31.3052 119.815 38.7392 130.622 47.8435 139.081C49.5452 140.663 61.4336 150.98 63.8038 150.29C70.9212 148.219 90.9404 134.868 104.852 117.659C129.981 86.572 134.25 45.1653 132.835 43.8108L132.835 43.8093ZM131.827 44.8518C128.501 85.0313 106.91 123.863 70.5924 145.53C62.6992 150.239 63.2266 149.526 61.613 148.328C61.2037 148.023 58.9385 146.315 58.8818 146.257C58.1934 145.564 57.9581 146.44 63.4451 143.396C82.0837 133.054 97.9881 115.321 108.36 98.1922C117.022 83.886 120.911 71.9018 123.717 57.9736C127.544 38.9854 124.925 40.1176 127.629 41.62C128.982 42.3712 130.208 43.3148 131.494 44.168C131.838 44.3964 131.836 44.4041 131.827 44.8518Z" fill="black"/>
<path d="M48.7894 46.7222C74.5286 47.3822 74.2089 50.5794 74.5232 47.5592C75.548 37.7022 70.1317 32.1646 61.3807 31.6587C56.97 33.8342 52.4879 35.4799 48.288 36.7348C47.1757 38.2602 46.3395 40.1068 45.7263 42.2493C45.2794 43.8116 45.149 44.9522 45.152 46.3481C45.1528 46.8502 45.1191 46.6279 48.7894 46.7222Z" fill="black"/>
<path d="M31.9337 47.2741C33.0896 47.2526 32.7171 46.6808 32.7708 46.4048C32.9793 45.3324 33.21 42.9201 33.9543 39.9689C30.1208 40.5913 27.6395 40.8328 27.3704 41.0336C27.0715 41.2559 26.8108 41.5303 26.7304 41.9289C26.2244 44.4187 25.812 46.8625 25.4855 49.2587C27.3819 48.0851 30.0158 47.3101 31.9337 47.2741Z" fill="black"/>
<path d="M114.022 45.6797C113.048 45.3416 101.531 43.8346 86.5396 36.3814C86.3395 36.2825 86.1433 36.1837 85.9486 36.0863C86.2169 36.9379 86.4354 37.8218 86.6002 38.737C88.1977 47.6053 85.4082 50.5358 86.7228 50.8953C93.2308 52.6775 96.3852 53.8511 97.5764 61.1816C98.9769 69.8015 95.6685 91.9678 92.6237 104.158C102.495 90.1894 112.244 66.6648 114.839 47.0549C114.852 46.0729 114.752 45.9326 114.023 45.6797H114.022Z" fill="black"/>
<path d="M74.3431 115.3C65.2748 115.3 58.2064 116.049 37.6943 111.39C46.8684 126.54 57.7335 134.318 59.3417 133.828C63.3078 132.618 68.8224 128.216 71.0998 126.486C77.0636 121.954 80.8565 118.415 84.4148 114.412C81.1868 115.099 77.3809 115.131 74.3431 115.3Z" fill="black"/>
<path d="M97.5764 61.1816C96.3852 53.8511 93.2309 52.6775 86.7228 50.8952C85.4082 50.535 88.1977 47.6052 86.6002 38.737C83.5716 21.9227 62.503 15.87 47.4786 22.6594C34.1797 28.6691 33.3787 43.2688 32.7701 46.4056C32.7164 46.6815 33.0889 47.2526 31.933 47.2741C29.0485 47.3285 24.5434 49.0532 23.3668 51.2915C18.017 61.4698 16.0217 93.0808 18.526 100.706C19.232 102.855 18.8924 105.126 26.1248 107.832C29.8173 109.214 31.1189 109.89 37.3709 111.317C58.1329 116.057 65.2273 115.301 74.3431 115.301C80.2056 114.976 88.9313 115.157 90.8384 110.163C94.1269 101.551 99.2613 71.5553 97.5757 61.1823L97.5764 61.1816ZM34.4588 46.8417C34.5048 44.7322 36.1797 37.2989 38.5805 33.1404C41.0641 28.8378 43.5478 26.739 46.916 24.8348C51.1205 22.4585 58.927 21.5325 59.8584 21.5142C65.2319 21.4076 70.4889 23.0158 74.6421 25.2181C80.6349 28.3955 83.1132 32.1577 84.3281 36.9686C85.4251 41.3126 85.3906 46.4998 84.7988 49.737C84.575 50.9596 84.7551 50.3663 76.4404 49.1705C76.1461 49.1283 76.0748 49.0532 76.1192 48.7213C79.1363 26.2093 51.6946 25.3783 45.3346 38.4894C43.5347 42.1995 43.6229 46.5734 43.6198 46.5941C43.5439 47.0226 40.0822 46.7114 40.0822 46.8287C34.2211 46.8287 34.4519 47.1798 34.4588 46.8417ZM74.5233 47.5592C74.209 50.5794 74.5286 47.3821 48.7894 46.7221C45.1192 46.6279 45.1521 46.8509 45.1514 46.3481C45.1491 44.9522 45.2786 43.8108 45.7255 42.2493C47.7193 35.2799 52.0795 31.4333 60.5828 31.6265C69.8006 31.8357 75.578 37.4063 74.5225 47.5585L74.5233 47.5592ZM90.7503 104.141C89.2609 110.662 89.3429 111.268 83.3293 112.641C80.0462 113.391 65.1384 113.751 61.7985 113.326C59.3578 113.016 59.2337 114.257 42.0001 110.674C16.4778 105.368 21.0733 103.271 19.2719 94.7358C18.2332 71.6695 23.0341 54.4651 24.466 52.4973C25.6312 50.8968 26.6101 50.6875 27.5713 49.9984C27.8733 49.7822 27.7492 49.921 29.2846 49.4112C30.393 49.0433 32.12 48.9865 32.1384 48.9865C47.9539 47.6872 61.2666 49.0187 76.9893 51.1589C84.762 52.2168 93.9506 52.9665 95.3749 58.9425C97.7359 68.8494 92.8997 94.7365 90.7511 104.141L90.7503 104.141Z" fill="black"/>
<path d="M46.3718 66.3588C43.9663 70.7926 44.7628 76.6958 49.1651 80.5385C49.3513 80.701 49.4241 80.8827 49.3897 81.118C49.0478 83.4736 48.5097 89.0211 48.5227 91.9539C48.5449 96.8537 48.7511 99.5627 52.8951 101.313C55.8287 102.552 58.8887 101.404 60.1183 97.5919C60.6326 95.996 60.6656 94.8208 61.2758 89.2886C62.04 82.3644 61.4421 82.5798 62.1351 82.2793C65.4443 80.8443 68.6515 76.7264 68.5703 71.8565C69.0409 60.8788 52.1768 55.6586 46.371 66.3581L46.3718 66.3588ZM53.0844 85.6928C51.6027 99.6831 53.6992 101.133 51.3298 99.2392C49.72 97.9522 49.6503 94.8837 49.6748 92.6415C49.7745 83.5564 51.4463 80.9118 50.4398 80.0295C46.7512 76.7993 44.8724 71.5139 48.1088 66.2806C48.8623 65.0626 50.5947 63.7633 50.7112 63.6529C52.0113 62.4241 53.9851 62.2915 53.227 63.1294C48.249 68.6363 50.1623 74.7227 53.7406 77.4922C54.432 78.0273 53.9138 77.851 53.0829 85.692L53.0844 85.6928Z" fill="black"/>
<path d="M86.9681 61.9159C86.7243 71.8213 83.1469 111.233 81.5133 106.633C81.0994 105.467 85.8543 62.9554 85.8236 61.2306C85.7585 57.5757 84.8586 57.1503 85.399 56.8559C85.7915 56.6421 86.2452 57.2867 86.3871 57.6608C86.9022 59.0207 87.0049 60.4618 86.9689 61.9167L86.9681 61.9159Z" fill="black"/>
<path d="M14.8297 132.234C14.3897 132.084 18.4624 127.89 18.388 127.111C18.3259 126.46 17.551 126.083 17.0259 126.55C16.3114 127.186 14.9753 128.593 13.9359 129.653C13.4974 130.101 13.7274 126.414 12.2112 123.58C11.8501 122.906 10.9655 123.067 10.9402 123.886C10.8889 125.556 11.7298 129.983 12.0149 131.319C10.5738 130.954 6.43218 129.813 6.39768 131.319C6.39002 131.655 6.58242 131.854 6.84152 131.982C9.94601 133.511 10.78 133.162 10.455 133.595C8.72413 135.898 8.17451 136.503 7.87712 137.389C7.66479 138.02 7.8319 138.723 8.52866 138.728C9.29138 138.734 9.54434 138.103 11.2392 136.055C13.4829 133.345 12.2963 134.057 13.7834 138.171C14.1536 139.195 14.2464 139.452 14.7278 139.38C15.5587 139.256 15.0068 136.511 14.8335 135.013C14.75 134.291 18.933 136.675 19.5294 135.151C20.0269 133.88 17.7978 133.241 14.8297 132.232V132.234Z" fill="black"/>
<path d="M118.127 13.3918C117.531 13.2101 119.591 12.2964 121.085 10.2206C121.516 9.62189 120.975 8.98718 119.506 9.90168C116.478 11.7859 116.441 12.4857 116.35 12.0212C116.02 10.3363 115.843 9.04621 115.313 8.09797C114.754 7.09685 113.282 6.8002 113.73 9.97527C114.283 13.8962 114.93 12.3761 111.67 12.5424C110.183 12.6183 109.65 13.5137 110.102 14.1024C110.368 14.4496 110.813 14.5178 111.726 14.7125C113.508 15.092 113.163 14.4251 110.307 17.2284C110.007 17.5235 109.624 18.1819 110.028 18.6334C110.731 19.4207 111.94 18.2149 114.572 16.1422C114.927 15.8624 114.633 16.1345 115.502 18.5997C115.793 19.4253 115.974 19.9841 116.575 19.9879C117.081 19.9918 117.604 19.4475 117.47 18.4464C116.751 13.0928 116.322 16.7178 121.04 15.1771C122.666 14.6459 119.655 13.8578 118.127 13.3918Z" fill="black"/>
<path d="M116.7 141.873C116.077 144.236 119.774 144.33 119.566 142.273C119.705 140.812 117.225 139.879 116.7 141.873Z" fill="black"/>
<path d="M32.8398 4.68228C31.7858 4.61789 28.6506 5.80374 29.7705 8.14478C30.636 9.95385 33.1502 10.4153 34.6136 8.77949C36.2594 6.93976 34.5837 4.55809 32.8398 4.68228ZM32.4665 8.30116C30.8399 8.41614 30.5716 6.53043 31.1404 6.33649C31.6693 6.15635 32.1775 5.88269 32.7631 5.92102C34.4327 6.03064 33.9436 8.42917 32.4665 8.30116Z" fill="black"/>
<path d="M147.388 91.4289C146.14 88.6264 141.961 89.7172 140.717 91.1115C138.225 93.9025 141.99 99.3328 145.842 96.0435C147.145 94.9305 148.028 92.8646 147.388 91.4289ZM143.241 95.4862C142.704 95.5598 141.399 94.3004 141.73 92.8194C141.947 91.8466 142.899 91.0908 143.35 91.1721C143.642 91.225 143.947 91.1813 144.246 91.202C147.088 91.399 145.579 95.3781 143.241 95.4862Z" fill="black"/>
</svg>
