<svg width="100" height="104" viewBox="0 0 100 104" fill="none" xmlns="http://www.w3.org/2000/svg">
<path d="M8.62665 49.599C7.55961 40.6826 8.03967 31.7288 9.99069 22.9139C10.2742 21.6335 11.4476 22.7983 19.7199 20.9456C20.3528 20.8041 20.9802 20.6561 21.6018 20.5033C21.8804 19.9876 22.1893 19.4741 22.5327 18.9686C15.3297 20.6788 9.67695 21.2598 9.47553 21.4353C9.11805 21.7464 9.00681 21.8781 8.75679 22.9495C6.34947 33.2689 6.28683 44.2023 8.22057 54.6821C8.31615 53.0151 8.45169 51.3027 8.62611 49.5985L8.62665 49.599Z" fill="url(#paint0_linear_7690_909)"/>
<path d="M89.3335 28.2664C87.9187 26.9121 85.5335 25.46 84.5205 25.0998C83.11 24.5976 70.5831 23.3967 52.8484 12.8316C46.2215 8.88418 47.0472 8.1865 44.5826 9.9496C43.7197 10.5668 42.8163 11.1516 41.8815 11.7051C42.2887 11.7672 42.6926 11.8396 43.0938 11.9228C46.3371 9.91396 45.8419 9.49816 46.6055 10.0706C54.3318 15.8648 68.1374 22.7228 81.5219 25.4471C82.9658 25.7408 83.7769 25.3299 83.5496 26.6831C83.2126 28.6881 82.4199 40.8198 76.6079 54.9386C69.0063 73.405 53.315 90.3767 38.465 98.2472C37.338 98.8444 36.2018 99.6641 34.6634 98.4626C31.1512 95.7194 28.6688 93.5632 25.425 89.6968C19.7869 82.9765 17.925 79.7073 15.4469 73.8564C15.0533 73.7063 14.6353 73.5454 14.1612 73.3677C14.1061 73.3472 14.0516 73.3267 13.9976 73.3062C17.81 81.809 23.0469 89.4219 29.4605 95.3814C30.6593 96.4954 39.0341 103.763 40.7038 103.277C45.7177 101.818 59.8203 92.413 69.6203 80.29C87.3225 58.3908 90.3298 29.2217 89.333 28.2675L89.3335 28.2664ZM88.6229 29.0008C86.2798 57.3054 71.0702 84.6608 45.486 99.9244C39.9257 103.242 40.2972 102.739 39.1605 101.895C38.8721 101.68 37.2764 100.477 37.2365 100.436C36.7515 99.9482 36.5858 100.565 40.4511 98.4205C53.5812 91.1354 64.7851 78.6435 72.0913 66.5767C78.1933 56.4987 80.9333 48.0563 82.9102 38.2445C85.6059 24.8682 83.7607 25.6658 85.6658 26.7242C86.6189 27.2534 87.4829 27.9181 88.3885 28.5191C88.631 28.68 88.6293 28.6854 88.6229 29.0008Z" fill="url(#paint1_linear_7690_909)"/>
<path d="M30.1268 30.3184C48.259 30.7834 48.0337 33.0357 48.2551 30.9081C48.9771 23.9643 45.1615 20.0633 38.9969 19.7069C35.8897 21.2394 32.7323 22.3988 29.7736 23.2828C28.9901 24.3574 28.401 25.6582 27.969 27.1675C27.6542 28.2681 27.5623 29.0716 27.5645 30.0549C27.565 30.4086 27.5413 30.252 30.1268 30.3184Z" fill="url(#paint2_linear_7690_909)"/>
<path d="M18.2529 30.7072C19.0672 30.6921 18.8048 30.2893 18.8426 30.0949C18.9895 29.3394 19.152 27.64 19.6764 25.561C16.9758 25.9995 15.2278 26.1696 15.0383 26.3111C14.8277 26.4677 14.6441 26.661 14.5874 26.9418C14.231 28.6957 13.9405 30.4173 13.7104 32.1053C15.0464 31.2786 16.9018 30.7326 18.2529 30.7072Z" fill="url(#paint3_linear_7690_909)"/>
<path d="M76.0801 29.584C75.3938 29.3459 67.2808 28.2842 56.72 23.0338C56.5791 22.9642 56.4409 22.8945 56.3037 22.8259C56.4927 23.4259 56.6466 24.0485 56.7627 24.6932C57.8881 30.9405 55.923 33.0049 56.8491 33.2582C61.4337 34.5137 63.6558 35.3404 64.495 40.5044C65.4815 46.5767 63.1509 62.1919 61.006 70.7795C67.9596 60.9391 74.8279 44.3671 76.6558 30.5528C76.665 29.861 76.5947 29.7622 76.0807 29.584H76.0801Z" fill="url(#paint4_linear_7690_909)"/>
<path d="M48.1284 78.6284C41.7402 78.6284 36.7609 79.156 22.311 75.8739C28.7738 86.5465 36.4277 92.0258 37.5606 91.6802C40.3546 90.8281 44.2394 87.7274 45.8437 86.5081C50.0449 83.3156 52.7168 80.823 55.2235 78.0031C52.9496 78.487 50.2685 78.5096 48.1284 78.6284Z" fill="url(#paint5_linear_7690_909)"/>
<path d="M64.495 40.5044C63.6558 35.3404 61.4337 34.5137 56.8491 33.2582C55.923 33.0044 57.8881 30.9405 56.7627 24.6932C54.6292 12.8483 39.7873 8.5845 29.2033 13.3673C19.8349 17.6009 19.2706 27.8857 18.8418 30.0954C18.804 30.2898 19.0664 30.6921 18.2521 30.7072C16.2201 30.7456 13.0465 31.9606 12.2176 33.5374C8.44896 40.7075 7.04334 62.976 8.80752 68.3474C9.30486 69.8615 9.06564 71.4616 14.1605 73.3678C16.7617 74.3408 17.6786 74.8171 22.0829 75.8226C36.7088 79.162 41.7065 78.629 48.1282 78.629C52.258 78.4 58.4048 78.528 59.7484 75.0099C62.065 68.943 65.6819 47.8123 64.4944 40.505L64.495 40.5044ZM20.0314 30.4027C20.0638 28.9166 21.2437 23.6802 22.935 20.7507C24.6846 17.7197 26.4342 16.2412 28.807 14.8998C31.7689 13.2258 37.2682 12.5735 37.9243 12.5605C41.7097 12.4855 45.413 13.6184 48.3388 15.1698C52.5604 17.4081 54.3062 20.0584 55.1621 23.4475C55.9349 26.5076 55.9106 30.1618 55.4937 32.4422C55.336 33.3035 55.4629 32.8856 49.6056 32.0432C49.3982 32.0135 49.348 31.9606 49.3793 31.7267C51.5047 15.868 32.1733 15.2827 27.6929 24.5188C26.425 27.1324 26.4871 30.2137 26.485 30.2282C26.4315 30.5301 23.9929 30.3109 23.9929 30.3935C19.864 30.3935 20.0266 30.6408 20.0314 30.4027ZM48.2551 30.9081C48.0337 33.0357 48.2588 30.7834 30.1267 30.3184C27.5412 30.252 27.5644 30.4091 27.5639 30.0549C27.5623 29.0716 27.6535 28.2675 27.9683 27.1675C29.3729 22.2578 32.4444 19.5481 38.4346 19.6842C44.9281 19.8316 48.9981 23.7558 48.2545 30.9076L48.2551 30.9081ZM59.6863 70.7677C58.637 75.3609 58.6948 75.788 54.4585 76.7552C52.1457 77.2833 41.6438 77.5371 39.2911 77.2379C37.5717 77.0192 37.4842 77.894 25.3439 75.3695C7.36464 71.6317 10.6019 70.1548 9.33294 64.1419C8.60124 47.8927 11.9833 35.773 12.992 34.3868C13.8128 33.2593 14.5024 33.1118 15.1795 32.6264C15.3923 32.4741 15.3048 32.5718 16.3864 32.2127C17.1673 31.9535 18.3839 31.9136 18.3968 31.9136C29.5381 30.9983 38.9163 31.9363 49.9922 33.4439C55.4678 34.1891 61.9408 34.7173 62.9441 38.9271C64.6073 45.9061 61.2004 64.1424 59.6868 70.7671L59.6863 70.7677Z" fill="url(#paint6_linear_7690_909)"/>
<path d="M28.4236 44.1516C26.7291 47.2749 27.2901 51.4335 30.3914 54.1405C30.5226 54.255 30.5739 54.383 30.5496 54.5487C30.3087 56.2082 29.9297 60.1161 29.9388 62.1822C29.9545 65.6339 30.0998 67.5422 33.019 68.775C35.0856 69.6482 37.2412 68.8393 38.1074 66.1539C38.4697 65.0296 38.493 64.2018 38.9228 60.3046C39.4612 55.4268 39.04 55.5785 39.5282 55.3668C41.8593 54.356 44.1187 51.4551 44.0614 48.0245C44.393 40.2911 32.513 36.6137 28.4231 44.151L28.4236 44.1516ZM33.1524 57.7715C32.1086 67.627 33.5855 68.6487 31.9163 67.3143C30.7823 66.4077 30.7332 64.246 30.7505 62.6665C30.8207 56.2665 31.9984 54.4035 31.2894 53.7819C28.6909 51.5064 27.3674 47.7831 29.6472 44.0965C30.1781 43.2384 31.3985 42.3231 31.4805 42.2454C32.3964 41.3797 33.7869 41.2863 33.2528 41.8765C29.7461 45.7559 31.0939 50.0435 33.6146 51.9945C34.1017 52.3714 33.7367 52.2472 33.1513 57.7709L33.1524 57.7715Z" fill="url(#paint7_linear_7690_909)"/>
<path d="M57.0218 41.0218C56.85 47.9997 54.3299 75.7638 53.1791 72.5227C52.8875 71.7019 56.2371 41.7541 56.2155 40.5391C56.1696 37.9643 55.5357 37.6646 55.9164 37.4573C56.1929 37.3066 56.5125 37.7608 56.6124 38.0243C56.9753 38.9822 57.0477 39.9974 57.0223 41.0224L57.0218 41.0218Z" fill="url(#paint8_linear_7690_909)"/>
<path d="M6.20381 90.5576C5.89385 90.4523 8.76287 87.4974 8.71049 86.9488C8.66675 86.4898 8.12081 86.2247 7.75091 86.5535C7.24763 87.0017 6.30641 87.9926 5.57417 88.7394C5.26529 89.0548 5.42729 86.4574 4.35917 84.4616C4.10483 83.9864 3.48167 84.0998 3.46385 84.677C3.42767 85.8531 4.02005 88.9722 4.22093 89.9129C3.20573 89.6558 0.288128 88.8523 0.263828 89.9129C0.258428 90.1499 0.393968 90.2898 0.576488 90.38C2.76347 91.4573 3.35099 91.2116 3.12203 91.5161C1.90271 93.1388 1.51553 93.5649 1.30603 94.1891C1.15645 94.6335 1.27417 95.1287 1.76501 95.1325C2.30231 95.1368 2.48051 94.6919 3.67445 93.2495C5.25503 91.3401 4.41911 91.8417 5.46671 94.7399C5.72753 95.4614 5.79287 95.6423 6.13199 95.5915C6.71735 95.504 6.32855 93.5703 6.20651 92.5151C6.14765 92.007 9.09443 93.6864 9.51455 92.6123C9.86501 91.717 8.29469 91.2672 6.20381 90.5565V90.5576Z" fill="#BC62CA"/>
<path d="M78.972 6.83868C78.5519 6.7107 80.0034 6.06702 81.0559 4.6047C81.3593 4.18296 80.9786 3.73584 79.9435 4.38006C77.8105 5.70738 77.784 6.2004 77.7203 5.87316C77.4881 4.68624 77.3628 3.77742 76.9897 3.10943C76.596 2.40419 75.5592 2.19521 75.8745 4.4319C76.2644 7.194 76.7196 6.12318 74.423 6.24036C73.376 6.29382 73.0007 6.92454 73.3187 7.33926C73.5061 7.58388 73.8193 7.63194 74.463 7.7691C75.718 8.0364 75.475 7.5666 73.4635 9.54138C73.2518 9.74928 72.9823 10.2131 73.2663 10.5312C73.7621 11.0858 74.6136 10.2364 76.468 8.7762C76.718 8.5791 76.5107 8.7708 77.1225 10.5074C77.3277 11.089 77.4551 11.4827 77.8785 11.4854C78.2349 11.4881 78.6037 11.1047 78.5092 10.3994C78.0027 6.62808 77.7003 9.18174 81.024 8.09634C82.1693 7.72212 80.0487 7.167 78.972 6.83868Z" fill="#BC62CA"/>
<path d="M18.891 0.703236C18.1485 0.657876 15.9399 1.49326 16.7288 3.14242C17.3385 4.41682 19.1097 4.7419 20.1405 3.58954C21.2999 2.29354 20.1195 0.615756 18.891 0.703236ZM18.628 3.25258C17.4821 3.33358 17.2931 2.00518 17.6938 1.86856C18.0664 1.74166 18.4244 1.54888 18.837 1.57588C20.0131 1.6531 19.6686 3.34276 18.628 3.25258Z" fill="#314A9F"/>
<path d="M99.5855 61.8123C98.7064 59.838 95.7623 60.6065 94.8859 61.5887C93.1304 63.5549 95.7823 67.3802 98.4958 65.0631C99.4138 64.279 100.036 62.8237 99.5855 61.8123ZM96.6636 64.6705C96.2856 64.7223 95.366 63.8351 95.5993 62.7918C95.7521 62.1066 96.4228 61.5741 96.7408 61.6314C96.946 61.6686 97.1615 61.6379 97.3715 61.6524C99.3739 61.7912 98.3111 64.5944 96.6636 64.6705Z" fill="#314A9F"/>
<defs>
<linearGradient id="paint0_linear_7690_909" x1="14.6929" y1="18.9686" x2="14.6929" y2="54.6821" gradientUnits="userSpaceOnUse">
<stop stop-color="#314A9F"/>
<stop offset="1" stop-color="#121B39"/>
</linearGradient>
<linearGradient id="paint1_linear_7690_909" x1="51.75" y1="9.03564" x2="51.75" y2="103.301" gradientUnits="userSpaceOnUse">
<stop stop-color="#314A9F"/>
<stop offset="1" stop-color="#121B39"/>
</linearGradient>
<linearGradient id="paint2_linear_7690_909" x1="37.9534" y1="19.7069" x2="37.9534" y2="31.8078" gradientUnits="userSpaceOnUse">
<stop stop-color="#314A9F"/>
<stop offset="1" stop-color="#121B39"/>
</linearGradient>
<linearGradient id="paint3_linear_7690_909" x1="16.6934" y1="25.561" x2="16.6934" y2="32.1053" gradientUnits="userSpaceOnUse">
<stop stop-color="#314A9F"/>
<stop offset="1" stop-color="#121B39"/>
</linearGradient>
<linearGradient id="paint4_linear_7690_909" x1="66.4801" y1="22.8259" x2="66.4801" y2="70.7795" gradientUnits="userSpaceOnUse">
<stop stop-color="#314A9F"/>
<stop offset="1" stop-color="#121B39"/>
</linearGradient>
<linearGradient id="paint5_linear_7690_909" x1="38.7673" y1="75.8739" x2="38.7673" y2="91.6956" gradientUnits="userSpaceOnUse">
<stop stop-color="#314A9F"/>
<stop offset="1" stop-color="#121B39"/>
</linearGradient>
<linearGradient id="paint6_linear_7690_909" x1="36.3902" y1="11.4429" x2="36.3902" y2="78.6602" gradientUnits="userSpaceOnUse">
<stop stop-color="#314A9F"/>
<stop offset="1" stop-color="#121B39"/>
</linearGradient>
<linearGradient id="paint7_linear_7690_909" x1="35.7758" y1="40.0237" x2="35.7758" y2="69.1117" gradientUnits="userSpaceOnUse">
<stop stop-color="#314A9F"/>
<stop offset="1" stop-color="#121B39"/>
</linearGradient>
<linearGradient id="paint8_linear_7690_909" x1="55.094" y1="37.4274" x2="55.094" y2="72.7848" gradientUnits="userSpaceOnUse">
<stop stop-color="#314A9F"/>
<stop offset="1" stop-color="#121B39"/>
</linearGradient>
</defs>
</svg>
